<svg width="100" height="100" viewBox="0 0 100 100" fill="none" xmlns="http://www.w3.org/2000/svg">
<g clip-path="url(#clip0_691_7)">
<path fill-rule="evenodd" clip-rule="evenodd" d="M63.05 56H92.95C95.402 56 96.29 56.255 97.187 56.735C98.0732 57.2041 98.7979 57.9288 99.267 58.815C99.747 59.712 100 60.6 100 63.05V92.95C100 95.402 99.745 96.29 99.265 97.187C98.7959 98.0732 98.0712 98.7979 97.185 99.267C96.288 99.747 95.4 100 92.95 100H63.05C60.598 100 59.71 99.745 58.813 99.265C57.9268 98.7959 57.2021 98.0712 56.733 97.185C56.253 96.288 56 95.4 56 92.95V63.05C56 60.598 56.255 59.71 56.735 58.813C57.2041 57.9268 57.9288 57.2021 58.815 56.733C59.712 56.253 60.6 56 63.05 56ZM63.05 0H92.95C95.402 0 96.29 0.255 97.187 0.735C98.0732 1.20409 98.7979 1.92879 99.267 2.815C99.747 3.712 100 4.6 100 7.05V36.95C100 39.402 99.745 40.29 99.265 41.187C98.7959 42.0732 98.0712 42.7979 97.185 43.267C96.288 43.747 95.4 44 92.95 44H63.05C60.598 44 59.71 43.745 58.813 43.265C57.9268 42.7959 57.2021 42.0712 56.733 41.185C56.253 40.288 56 39.4 56 36.95V7.05C56 4.598 56.255 3.71 56.735 2.813C57.2041 1.92679 57.9288 1.20209 58.815 0.733C59.712 0.253 60.6 0 63.05 0ZM7.05 56H36.95C39.402 56 40.29 56.255 41.187 56.735C42.0732 57.2041 42.7979 57.9288 43.267 58.815C43.747 59.712 44 60.6 44 63.05V92.95C44 95.402 43.745 96.29 43.265 97.187C42.7959 98.0732 42.0712 98.7979 41.185 99.267C40.288 99.747 39.4 100 36.95 100H7.05C4.598 100 3.71 99.745 2.813 99.265C1.92679 98.7959 1.20209 98.0712 0.733 97.185C0.253 96.288 0 95.4 0 92.95V63.05C0 60.598 0.255 59.71 0.735 58.813C1.20409 57.9268 1.92879 57.2021 2.815 56.733C3.712 56.253 4.6 56 7.05 56ZM7.05 0H36.95C39.402 0 40.29 0.255 41.187 0.735C42.0732 1.20409 42.7979 1.92879 43.267 2.815C43.747 3.712 44 4.6 44 7.05V36.95C44 39.402 43.745 40.29 43.265 41.187C42.7959 42.0732 42.0712 42.7979 41.185 43.267C40.288 43.747 39.4 44 36.95 44H7.05C4.598 44 3.71 43.745 2.813 43.265C1.92679 42.7959 1.20209 42.0712 0.733 41.185C0.253 40.288 0 39.4 0 36.95V7.05C0 4.6 0.255 3.7 0.735 2.814C1.215 1.928 1.918 1.214 2.815 0.734C3.712 0.254 4.6 0 7.05 0Z" fill="#3BEDB2"/>
<path d="M70.0003 83.6029C70.0003 84.5599 70.8003 85.3359 71.7663 85.3359C72.7323 85.3359 73.5323 84.5589 73.5323 83.6029V75.9169L83.8203 86.0169C84.1544 86.3419 84.6021 86.5237 85.0683 86.5237C85.5344 86.5237 85.9821 86.3419 86.3163 86.0169C86.4799 85.8576 86.6099 85.6671 86.6987 85.4567C86.7874 85.2463 86.8332 85.0203 86.8332 84.7919C86.8332 84.5636 86.7874 84.3375 86.6987 84.1271C86.6099 83.9167 86.4799 83.7262 86.3163 83.5669L76.0283 73.4669H83.8563C84.8323 73.4669 85.6223 72.6909 85.6223 71.7339C85.6223 70.7769 84.8333 70.0009 83.8563 70.0009H71.7563C71.5252 70.0018 71.2964 70.047 71.0823 70.1339C70.6523 70.3089 70.3063 70.6479 70.1283 71.0709C70.0283 71.2709 69.9923 71.5069 69.9923 71.7309L70.0003 83.6029ZM84.6023 30.8329C85.5593 30.8329 86.3353 30.0329 86.3353 29.0669C86.3353 28.1009 85.5603 27.3009 84.6023 27.3009H76.9163L87.0143 17.0129C87.3392 16.6788 87.5211 16.231 87.5211 15.7649C87.5211 15.2988 87.3392 14.8511 87.0143 14.5169C86.8549 14.3533 86.6645 14.2233 86.4541 14.1345C86.2437 14.0457 86.0176 14 85.7893 14C85.5609 14 85.3349 14.0457 85.1245 14.1345C84.9141 14.2233 84.7236 14.3533 84.5643 14.5169L74.4663 24.8169V16.9869C74.4663 16.0099 73.6903 15.2209 72.7333 15.2209C71.7763 15.2209 71.0003 16.0009 71.0003 16.9779V29.0779C71.0012 29.309 71.0463 29.5378 71.1333 29.7519C71.3068 30.1818 71.6438 30.5252 72.0703 30.7069C72.2792 30.7962 72.504 30.8425 72.7313 30.8429L84.6013 30.8449L84.6023 30.8329ZM16.9203 70.0009C15.9633 70.0009 15.1873 70.8009 15.1873 71.7669C15.1873 72.7329 15.9633 73.5329 16.9203 73.5329H24.6063L14.5083 83.8209C14.183 84.1551 14.001 84.603 14.001 85.0694C14.001 85.5358 14.183 85.9837 14.5083 86.3179C14.6676 86.4815 14.8581 86.6115 15.0685 86.7003C15.2789 86.7891 15.5049 86.8348 15.7333 86.8348C15.9616 86.8348 16.1877 86.7891 16.3981 86.7003C16.6085 86.6115 16.7989 86.4815 16.9583 86.3179L27.0563 76.0309V83.8589C27.0563 84.8359 27.8323 85.6249 28.7893 85.6249C29.7463 85.6249 30.5223 84.8249 30.5223 83.8589V71.7589C30.5223 71.5289 30.4753 71.2989 30.3893 71.0859C30.2157 70.656 29.8788 70.3126 29.4523 70.1309C29.2433 70.0416 29.0185 69.9953 28.7913 69.9949H16.9203V70.0009ZM30.8333 16.9209C30.8333 15.9639 30.0333 15.1879 29.0673 15.1879C28.1013 15.1879 27.3013 15.9649 27.3013 16.9209V24.6069L17.0143 14.5089C16.6801 14.1839 16.2324 14.0021 15.7663 14.0021C15.3001 14.0021 14.8524 14.1839 14.5183 14.5089C14.3547 14.6682 14.2247 14.8587 14.1359 15.0691C14.0471 15.2795 14.0014 15.5055 14.0014 15.7339C14.0014 15.9623 14.0471 16.1883 14.1359 16.3987C14.2247 16.6091 14.3547 16.7996 14.5183 16.9589L24.8063 27.0569H16.9783C16.0023 27.0569 15.2123 27.8329 15.2123 28.7899C15.2123 29.7469 16.0123 30.5229 16.9783 30.5229H29.0783C29.3094 30.522 29.5382 30.4769 29.7523 30.3899C30.1823 30.2149 30.5283 29.8759 30.7063 29.4529C30.8063 29.2529 30.8423 29.0169 30.8423 28.7929L30.8443 16.9229L30.8333 16.9209Z" fill="white"/>
</g>
<defs>
<clipPath id="clip0_691_7">
<rect width="100" height="100" fill="white"/>
</clipPath>
</defs>
</svg>
